# xmcd
#
# Track frame offsets: 
#        150
#        47040
#        113725
#        162662
#        211287
#
# Disc length: 3079 seconds
#
# Revision: 2
# Processed by: cddbd v1.5.2PL0 Copyright (c) Steve Scherf et al.
# Submitted via: ExactAudioCopy v0.95b4
#
DISCID=410c0505
DTITLE=John Coltrane - Living Space
DYEAR=1965
DGENRE=Jazz
TTITLE0=Living Space
TTITLE1=Untitled 90314
TTITLE2=Dusk-Dawn
TTITLE3=Untitled 90320
TTITLE4=The Last Blues
EXTD=John Coltrane - ts, ss\nMcCoy Tyner - p\nJimmy Garrison - b\nElvi
EXTD=n Jones - d\n\nRecorded June 10 and 16, 1965\nVan Gelder Studio\n\n
EXTD=submitted 3/24/98 dhh YEAR: 1998
EXTT0=
EXTT1=
EXTT2=
EXTT3=
EXTT4=
PLAYORDER=
